<?xml version="1.0" encoding="UTF-8" standalone="no"?>
<!DOCTYPE svg PUBLIC "-//W3C//DTD SVG 1.1//EN" "http://www.w3.org/Graphics/SVG/1.1/DTD/svg11.dtd">
<svg width="100%" height="100%" viewBox="0 0 1000 1000" version="1.1" xmlns="http://www.w3.org/2000/svg" xmlns:xlink="http://www.w3.org/1999/xlink" xml:space="preserve" xmlns:serif="http://www.serif.com/" style="fill-rule:evenodd;clip-rule:evenodd;stroke-linecap:round;stroke-linejoin:round;stroke-miterlimit:1.5;">
    <rect x="0" y="0" width="1000" height="1000" style="fill:rgb(68,103,59);"/>
    <g transform="matrix(1,0,0,1,89.1059,144.156)">
        <path d="M195,296C190.45,320.219 193.058,340.438 204,356C203.091,392.758 210.733,400.44 219,406C222.076,451.752 234.348,460.495 247,457L295,280L195,296" style="fill:rgb(211,163,136);"/>
    </g>
    <g transform="matrix(1,0,0,1,89.1059,144.156)">
        <path d="M642,285C644.739,308.315 642.392,330.135 630,349C632.922,371.05 628.427,385.188 618,393C612.488,440.37 603.851,456.487 593,450.462L571,280L642,285Z" style="fill:rgb(211,163,136);"/>
    </g>
    <g transform="matrix(1,0,0,1,89.1059,144.156)">
        <path d="M219,296C230.305,378.219 245.771,461.438 266.367,543.658C284.072,583.748 306.392,614.532 332,646L506,643C533.087,622.691 556.583,593.576 581,535C597.728,467.061 606.407,369.074 602,280L219,296Z" style="fill:rgb(217,169,142);"/>
    </g>
    <g transform="matrix(1,0,0,1,89.1059,144.156)">
        <path d="M325.128,637C319.637,613.833 321.226,568.5 330.329,547C339.088,526.313 366.033,512.167 379.744,508C391.033,504.569 400.929,517.498 412.595,517C424.299,516.5 436.857,501.847 449.965,505C466.596,509 502.558,522.667 512.384,546C522.209,569.333 515.707,621.5 508.916,645C503.423,664.008 487.093,677.854 471.638,687C455.585,696.5 430.656,702.167 412.595,702C395.517,701.842 377.63,696.669 363.272,686C348.694,675.167 330.146,658.175 325.128,637ZM411.822,569C397.601,569.805 382.752,568.347 366.822,563C350.337,559.771 355.822,588.167 362.822,592C369.822,595.833 393.395,587.048 408.822,586C425.989,584.833 456.489,589.167 465.822,585C473.134,581.736 477.805,556.654 464.822,561C430.259,566.9 433.646,567.337 411.822,569Z" style="fill:rgb(86,52,20);"/>
    </g>
    <g transform="matrix(1,0,0,1,89.1059,144.156)">
        <path d="M227,312C229.165,328.152 235.515,349.605 238,368L251,368C256.355,357.87 268.19,350.44 292,348C331.638,343.974 360.711,344.813 376,352C384.579,355.673 388.187,361.764 391,368L440,368C442.036,362.52 447.149,356.019 457,351C471.949,343.384 502.628,346.62 538,345C570.942,344.337 579.661,364.8 584,373C589.353,370.902 594.416,368.611 599,366L602,296L599,366L584,373C586.734,394.755 585.12,410.535 576,423C562.431,438.177 546.824,441.706 531,444C515.582,445.253 500.816,444.553 487,441C464.428,431.276 460.635,423.686 456,416C450.414,407.072 447.58,401.721 446,398C442.388,389.241 439.534,380.733 439,373L393,374C392.399,403.379 381.155,425.308 361,441C340.944,449.954 317.745,453.143 290,448C276.289,443.228 263.974,436.793 257,424C249.741,409.667 251.526,382.333 251,368L238,368C237.862,366.035 236.707,367.08 236.536,365.134C234.659,343.757 230.867,331.531 227,312Z" style="fill:none;stroke:rgb(25,25,25);stroke-width:12.21px;"/>
    </g>
    <g id="Chapeau" transform="matrix(1,0,0,1,89.1059,144.156)">
        <path d="M215,40C196.6,66.069 200,209 200,209C200,209 87.845,214.524 80,228C63.072,257.077 134.672,280.43 183,301C278.61,341.695 509.201,333.315 604,301C646.431,286.536 708.132,265.148 731,253C746.251,244.898 750.33,223.962 733,218C715.734,212.06 679.76,198.477 640,192C638.921,179.056 632.79,168.055 619,160C619,160 617.52,67.922 605,47C594.326,29.164 552.48,38.712 536,31C462.885,-3.214 310.357,9.023 287,31C276.912,40.492 223.441,28.04 215,40Z" style="fill:rgb(25,25,25);stroke:rgb(25,25,25);stroke-width:1px;"/>
    </g>
    <g transform="matrix(1.22222,0,0,1.22222,-21.3385,33.7118)">
        <circle cx="501.5" cy="501.5" r="4.5" style="fill:rgb(86,52,20);"/>
    </g>
</svg>
