<?xml version="1.0" encoding="UTF-8" standalone="no"?>
<!DOCTYPE svg PUBLIC "-//W3C//DTD SVG 1.1//EN" "http://www.w3.org/Graphics/SVG/1.1/DTD/svg11.dtd">
<svg width="100%" height="100%" viewBox="0 0 8 8" version="1.1" xmlns="http://www.w3.org/2000/svg" xmlns:xlink="http://www.w3.org/1999/xlink" xml:space="preserve" xmlns:serif="http://www.serif.com/" style="fill-rule:evenodd;clip-rule:evenodd;stroke-linejoin:round;stroke-miterlimit:2;">
    <g transform="matrix(0.00234396,0,0,-0.00234396,-1.86539,10.8944)">
        <g>
            <path d="M2200,4517C2150,4491 2110,4427 2110,4376C2110,4328 2150,4258 2193,4231L2230,4207L2230,2591L2201,2575C2100,2523 2082,2384 2165,2311C2249,2238 2365,2255 2418,2349C2462,2426 2438,2517 2363,2565L2331,2585L2331,4215L2362,4235C2417,4270 2435,4304 2435,4373C2435,4448 2408,4493 2346,4521C2291,4546 2252,4545 2200,4517ZM2315,4444C2338,4435 2361,4384 2354,4356C2339,4296 2256,4274 2219,4319C2194,4350 2195,4405 2220,4430C2240,4450 2283,4456 2315,4444ZM2314,2499C2343,2485 2365,2440 2355,2410C2327,2320 2200,2337 2200,2431C2200,2492 2255,2525 2314,2499Z" style="fill:rgb(140,80,255);fill-rule:nonzero;"/>
            <path d="M2665,4533C2634,4525 2582,4482 2565,4450C2528,4379 2560,4270 2626,4234L2660,4215L2660,2585L2630,2572C2586,2552 2557,2505 2552,2443C2545,2354 2586,2292 2670,2270C2786,2239 2901,2353 2870,2469C2858,2516 2828,2556 2789,2575L2760,2591L2760,4218L2790,4230C2850,4255 2888,4342 2869,4412C2845,4504 2758,4555 2665,4533ZM2767,4428C2806,4391 2797,4329 2748,4304C2669,4263 2596,4354 2651,4424C2678,4458 2733,4460 2767,4428ZM2765,2485C2815,2436 2780,2350 2710,2350C2670,2350 2630,2389 2630,2428C2630,2467 2673,2510 2712,2510C2729,2510 2751,2500 2765,2485Z" style="fill:rgb(140,80,255);fill-rule:nonzero;"/>
            <path d="M1863,4075C1832,4062 1800,4016 1800,3985C1800,3954 1831,3903 1855,3892L1880,3880L1880,2803L1854,2790C1787,2754 1784,2656 1848,2614C1876,2595 1928,2593 1959,2609C1984,2623 2010,2670 2010,2702C2010,2734 1976,2787 1951,2795C1930,2801 1930,2804 1930,3339L1930,3877L1956,3890C2013,3921 2027,4002 1983,4049C1949,4085 1906,4094 1863,4075ZM1954,3997C1974,3941 1897,3905 1864,3955C1845,3984 1853,4018 1883,4029C1914,4041 1943,4027 1954,3997ZM1944,2734C1992,2686 1919,2621 1868,2667C1846,2687 1845,2708 1867,2732C1887,2754 1923,2755 1944,2734Z" style="fill:rgb(140,80,255);fill-rule:nonzero;"/>
            <path d="M3054,4080C3018,4066 2990,4021 2990,3979C2990,3949 2997,3934 3025,3907L3060,3873L3060,2809L3025,2776C2996,2749 2990,2735 2990,2703C2990,2635 3050,2585 3117,2598C3148,2604 3187,2646 3195,2680C3203,2717 3178,2773 3145,2790L3120,2803L3120,3875L3154,3902C3216,3952 3206,4046 3136,4075C3096,4092 3084,4092 3054,4080ZM3125,4016C3159,3982 3141,3930 3094,3930C3043,3930 3021,3995 3062,4024C3092,4045 3097,4044 3125,4016ZM3136,2725C3151,2702 3151,2698 3136,2675C3098,2618 3020,2663 3048,2725C3057,2744 3067,2750 3090,2750C3111,2750 3124,2742 3136,2725Z" style="fill:rgb(140,80,255);fill-rule:nonzero;"/>
            <path d="M1485,3437C1443,3420 1417,3400 1394,3365C1377,3339 1375,3316 1375,3130C1376,2958 1379,2907 1398,2811C1463,2489 1614,2260 1873,2092C1983,2021 2115,1964 2297,1911C2399,1881 2440,1825 2440,1714C2440,1567 2347,1470 2191,1454C2125,1447 2114,1434 2122,1379L2125,1355L2480,1347C2712,1342 2843,1343 2857,1349C2887,1363 2896,1404 2877,1434C2863,1454 2850,1459 2786,1465C2700,1473 2618,1508 2587,1552C2544,1611 2556,1790 2607,1851C2641,1891 2651,1895 2784,1929C3306,2063 3567,2424 3620,3085C3635,3270 3633,3330 3611,3366C3591,3399 3519,3440 3482,3440C3460,3440 3460,3438 3460,3292C3460,2603 3237,2208 2760,2055C2557,1989 2270,2019 2055,2126C1784,2263 1616,2508 1560,2850C1542,2959 1544,3195 1565,3324C1579,3415 1580,3434 1569,3441C1551,3453 1522,3451 1485,3437Z" style="fill:rgb(140,80,255);fill-rule:nonzero;"/>
        </g>
    </g>
</svg>
